<?xml version="1.0" encoding="UTF-8"?>
<svg version="1.1" xmlns="http://www.w3.org/2000/svg" width="500" height="500">
<path d="M0 0 C2.0625 0.4375 2.0625 0.4375 4 1 C4.2700558 8.8316181 3.23107719 16.27279225 2 24 C2.38671875 23.39671875 2.7734375 22.7934375 3.171875 22.171875 C10.09739524 11.54360136 10.09739524 11.54360136 15.5 10 C19 10 19 10 21.375 11.75 C24.36070272 15.88404992 24.5780889 20.06529909 24 25 C20.84265296 37.3277308 12.48818048 45.44255857 2 52 C-1.94451898 54.62967932 -2.07211195 57.30155076 -2.98046875 61.6875 C-3.15447708 62.48159271 -3.32848541 63.27568542 -3.50776672 64.09384155 C-4.08038636 66.72666414 -4.63432804 69.3630283 -5.1875 72 C-5.58021476 73.82904933 -5.97345109 75.65798674 -6.3671875 77.48681641 C-9.66013214 92.90353376 -12.6459553 108.37994411 -15.52416992 123.87890625 C-15.68410934 124.73827789 -15.84404877 125.59764954 -16.00883484 126.48306274 C-16.30701672 128.0895707 -16.60313482 129.69646363 -16.89680481 131.30380249 C-17.44888387 134.28635403 -18.03930931 137.11792792 -19 140 C-20.65 139.67 -22.3 139.34 -24 139 C-23.4266667 129.88547237 -22.11122884 120.99191713 -20.53125 112.00390625 C-20.28801655 110.59821475 -20.04522732 109.19244632 -19.80285645 107.78660583 C-19.17002177 104.12342003 -18.53088865 100.461361 -17.89044189 96.79949951 C-17.36826249 93.80772251 -16.85050752 90.8151878 -16.33298492 87.82260227 C-15.26233403 81.63167856 -14.18821755 75.44135813 -13.10742188 69.25219727 C-12.91724487 68.16254166 -12.72706787 67.07288605 -12.53112793 65.95021057 C-12.05269481 63.29269933 -11.54031884 60.64553744 -11 58 C-15.61507774 56.95785309 -15.61507774 56.95785309 -20 58 C-23.3125 58.4375 -23.3125 58.4375 -27 58 C-32.409419 53.45117039 -33.52861438 47.72291642 -35 41 C-35.66 41 -36.32 41 -37 41 C-39.11778631 43.27521468 -41.12585503 45.60542342 -43.10351562 48.00195312 C-45.14142469 50.36050144 -46.71393332 51.88769234 -49.63671875 53.03515625 C-52 53 -52 53 -53.80078125 51.91796875 C-55.44771881 49.28394158 -55.29623349 47.39328236 -55.1875 44.3125 C-55.14689453 42.82169922 -55.14689453 42.82169922 -55.10546875 41.30078125 C-55.07066406 40.54152344 -55.03585937 39.78226562 -55 39 C-56.10021484 39.48339844 -56.10021484 39.48339844 -57.22265625 39.9765625 C-61.22348661 41.45084879 -64.79071095 41.62250049 -69 41 C-72.18970398 39.26016146 -74.44695493 37.55304507 -77 35 C-77.30292969 35.99 -77.60585938 36.98 -77.91796875 38 C-80.50694635 46.24382228 -82.96386922 53.71161105 -89 60.125 C-91 61 -91 61 -93.625 60.4375 C-96.3259023 58.80274334 -97.06236936 57.98337022 -98 55 C-98.125 52.25 -98.125 52.25 -98 50 C-101.52382139 53.38472318 -104.3426273 57.04150371 -107.21875 60.9765625 C-109.06459977 63.07338307 -110.39974588 64.03209857 -113 65 C-115.5625 64.9375 -115.5625 64.9375 -118 64 C-121.83681226 59.45063689 -121.35125538 54.81816572 -121.1875 49.1875 C-121.16719727 47.86202148 -121.16719727 47.86202148 -121.14648438 46.50976562 C-121.11129217 44.33957977 -121.05748985 42.16970967 -121 40 C-121.81791016 41.01707031 -121.81791016 41.01707031 -122.65234375 42.0546875 C-126.59850173 46.92498845 -130.57726433 51.6903242 -134.8125 56.3125 C-141.35022863 63.14577334 -141.35022863 63.14577334 -143 72.0625 C-142.70336115 81.14706471 -145.02854355 89.24679596 -151 96.1875 C-153.46765583 98.78528612 -155.65127228 100.67417719 -159 102 C-161.625 101.9375 -161.625 101.9375 -164 101 C-165.84105496 98.62197067 -166.11102488 96.94462155 -165.76171875 93.97265625 C-163.65366597 85.35401869 -158.20949241 75.43376865 -152.09375 68.9921875 C-150.66376638 66.87672357 -150.66376638 66.87672357 -151.5703125 63.6484375 C-153.01473322 59.96240211 -154.7099819 56.93380124 -156.875 53.625 C-162.44157946 44.81963765 -166.60959222 37.74687329 -165 27 C-162.97729558 21.14821875 -158.97202843 17.73368325 -153.75 14.6875 C-149.72591852 13.68147963 -146.05507814 14.34624013 -142 15 C-141.67 16.65 -141.34 18.3 -141 20 C-142.08667969 20.02126953 -142.08667969 20.02126953 -143.1953125 20.04296875 C-149.8827873 20.29017853 -149.8827873 20.29017853 -155.625 23.375 C-158.42817307 26.47324391 -158.92952568 28.12380435 -159.26171875 32.25390625 C-158.96122121 36.55505764 -157.81725951 39.13743347 -155.8125 42.9375 C-155.49659912 43.54432617 -155.18069824 44.15115234 -154.85522461 44.77636719 C-153.05626445 48.18760726 -151.13204516 51.49700804 -149.0625 54.75 C-147 58 -147 58 -147 60 C-139.17711045 52.26033268 -131.93271871 44.07444164 -125.0390625 35.5 C-123.28953746 33.35498845 -121.48294051 31.30014126 -119.625 29.25 C-116.86673354 26.08565542 -115.44316899 22.92862669 -114 19 C-112.68 19 -111.36 19 -110 19 C-108.92279971 22.23160086 -109.03394631 22.90410957 -109.9609375 26.01953125 C-110.29738281 27.18258789 -110.29738281 27.18258789 -110.640625 28.36914062 C-110.88296875 29.17544922 -111.1253125 29.98175781 -111.375 30.8125 C-113.58084726 38.28450459 -115.14270342 45.01506443 -115.0625 52.875 C-115.05347656 54.02742188 -115.04445313 55.17984375 -115.03515625 56.3671875 C-115.02355469 57.23601562 -115.01195312 58.10484375 -115 59 C-109.50102451 55.20451148 -106.57904918 50.14072579 -103.10546875 44.58007812 C-102.64785156 43.87947266 -102.19023437 43.17886719 -101.71875 42.45703125 C-101.11450195 41.4976062 -101.11450195 41.4976062 -100.49804688 40.51879883 C-99 39 -99 39 -94 38 C-93.01 45.425 -93.01 45.425 -92 53 C-88.73992908 49.73992908 -87.52359139 46.78353286 -86 42.5625 C-85.73727295 41.85472412 -85.4745459 41.14694824 -85.20385742 40.41772461 C-83.26989908 35.0832679 -81.84051173 29.73129399 -80.73828125 24.16015625 C-80.49464844 23.44730469 -80.25101562 22.73445313 -80 22 C-79.01 21.67 -78.02 21.34 -77 21 C-74.925813 23.46927024 -73.78482944 25.53324879 -72.5625 28.5625 C-70.72279831 32.76351797 -70.72279831 32.76351797 -67 35 C-60.11927136 34.88902051 -56.21025445 32.89958466 -51.0625 28.25 C-49.79652702 26.86893857 -48.55040231 25.46894579 -47.33984375 24.0390625 C-46.73269531 23.32492187 -46.12554687 22.61078125 -45.5 21.875 C-44.9328125 21.19179688 -44.365625 20.50859375 -43.78125 19.8046875 C-41.91686263 17.91576871 -40.47423585 16.93449612 -38 16 C-33.43571861 16.08298693 -31.5395371 16.52933998 -28.0625 19.5625 C-27.381875 20.366875 -26.70125 21.17125 -26 22 C-26.33 22.99 -26.66 23.98 -27 25 C-27.99 25.33 -28.98 25.66 -30 26 C-30.598125 25.505 -31.19625 25.01 -31.8125 24.5 C-33.96342851 22.75072287 -33.96342851 22.75072287 -36.9375 22.8125 C-41.58020041 24.61273077 -43.01143386 27.55731712 -45 32 C-46.50353908 36.29022876 -47.80346626 40.61493779 -49 45 C-45.15274582 41.31911357 -41.88614275 37.43814081 -38.6875 33.1875 C-38.0059082 32.2912793 -38.0059082 32.2912793 -37.31054688 31.37695312 C-36.20366083 29.92052412 -35.10134736 28.46062183 -34 27 C-32.68 27.33 -31.36 27.66 -30 28 C-29.80664062 29.30195313 -29.61328125 30.60390625 -29.4140625 31.9453125 C-29.15131832 33.67191712 -28.88828205 35.39847731 -28.625 37.125 C-28.49867188 37.9809375 -28.37234375 38.836875 -28.2421875 39.71875 C-27.53250297 44.33169948 -26.65526263 48.60995565 -25 53 C-15.87620019 49.66202446 -11.47511107 40.72212924 -7.39111328 32.41723633 C-5.00714517 26.56107598 -4.11701198 20.53859958 -3.1875 14.3125 C-2.78806844 11.80812754 -2.3858848 9.30419189 -1.98046875 6.80078125 C-1.73139771 5.16363159 -1.73139771 5.16363159 -1.47729492 3.4934082 C-1 1 -1 1 0 0 Z M12.6875 17.75 C6.59157334 24.23267729 1 35.97171542 1 45 C7.16863719 43.3176444 11.10721497 38.8320618 14.55859375 33.66796875 C17.88044231 27.69240547 18.64867175 22.7750161 18 16 C14.91536537 15.69827866 14.91536537 15.69827866 12.6875 17.75 Z M0 26 C1 29 1 29 1 29 Z M-10 48 C-10.66 49.32 -11.32 50.64 -12 52 C-11.01 51.67 -10.02 51.34 -9 51 C-9.33 50.01 -9.66 49.02 -10 48 Z M-150 75 C-151.36074202 77.04260835 -152.66097281 79.09309167 -153.9375 81.1875 C-154.29779297 81.76564453 -154.65808594 82.34378906 -155.02929688 82.93945312 C-157.02331076 86.18936526 -158.89358609 89.33935056 -160 93 C-159.67 93.99 -159.34 94.98 -159 96 C-153.36888375 91.17332893 -149.33328509 84.86610707 -148.6875 77.375 C-148.790625 76.59125 -148.89375 75.8075 -149 75 C-149.33 75 -149.66 75 -150 75 Z " fill="#FDFDFD" transform="translate(395,239)"/>
<path d="M0 0 C2.0625 0.4375 2.0625 0.4375 4 1 C4 1.66 4 2.32 4 3 C5.61455078 2.93039063 5.61455078 2.93039063 7.26171875 2.859375 C18.82637064 2.51372498 30.7672022 3.08617331 40 11 C45.95554612 16.90486062 48.94621285 21.56323224 49.4375 30.0625 C49.16069577 42.09534254 42.42296299 52.26195934 36 62 C36.8971875 62.1134375 37.794375 62.226875 38.71875 62.34375 C45.47672637 63.69534527 50.4839745 67.78044094 54.375 73.375 C61.72318179 85.48626916 62.2806797 97.62217905 59.171875 111.171875 C56.20185155 121.72586976 50.34640442 131.92200344 43 140 C42.29617187 140.80695313 41.59234375 141.61390625 40.8671875 142.4453125 C27.35081715 157.03228644 6.66816615 166.12903406 -13.21875 167.109375 C-14.81286675 167.12202672 -16.4074052 167.07078199 -18 167 C-18.495 165.02 -18.495 165.02 -19 163 C-15.31154856 160.54103237 -11.91001152 160.27468731 -7.625 159.6875 C11.65580788 156.73826263 29.60225079 147.75313049 41.8125 132.25 C51.53458467 118.59029681 55.66701508 104.58455838 54 88 C52.40828641 81.14272577 49.17217877 74.68643395 43.11328125 70.78515625 C39.16421731 68.67146679 35.53699923 67.0900645 31 67 C28.56700399 68.69609359 26.6675793 70.27442668 24.5625 72.3125 C14.59244026 81.37813384 -0.86773023 95 -15 95 C-15.04689972 95.58378922 -15.09379944 96.16757843 -15.14212036 96.76905823 C-15.74864844 103.57469077 -16.87397996 110.19942616 -18.1796875 116.90234375 C-18.39311798 118.01952286 -18.60654846 119.13670197 -18.82644653 120.28773499 C-19.50516351 123.83846437 -20.18954207 127.38806627 -20.875 130.9375 C-23.82777092 146.25910022 -26.70700943 161.56405783 -29 177 C-27.68 177.33 -26.36 177.66 -25 178 C-25.47610659 182.99911924 -27.03162219 185.97832683 -30 190 C-31.65 189.67 -33.3 189.34 -35 189 C-35.48552041 177.24512154 -34.03344187 166.35236679 -31.9375 154.8125 C-31.62278408 153.02366514 -31.30891463 151.23468117 -30.99584961 149.44555664 C-29.41403093 140.47971525 -27.73508308 131.53435721 -25.9765625 122.6015625 C-25.81481033 121.77893417 -25.65305817 120.95630585 -25.48640442 120.10874939 C-24.71715739 116.21037922 -23.93610384 112.31494755 -23.13452148 108.4230957 C-22.85138517 107.02034799 -22.56826266 105.6175975 -22.28515625 104.21484375 C-22.03644775 103.00948975 -21.78773926 101.80413574 -21.53149414 100.56225586 C-21.12279213 97.82299495 -21.00031061 95.69896177 -21.10717773 92.98657227 C-21.00567424 89.2110586 -20.28200006 87.21931294 -18.76442432 83.85608768 C-17.56701404 80.94867304 -17.00109866 77.98101415 -16.39013672 74.90307617 C-16.25475494 74.2322702 -16.11937317 73.56146423 -15.97988892 72.87033081 C-15.5394068 70.67922549 -15.10959065 68.48617178 -14.6796875 66.29296875 C-14.373237 64.76061752 -14.06602469 63.22841845 -13.75808716 61.69636536 C-12.952983 57.68224321 -12.15653009 53.66645758 -11.36242676 49.65014648 C-10.08660537 43.20426103 -8.79838451 36.76084874 -7.50860977 30.3177433 C-7.05970997 28.06813821 -6.61500884 25.81773331 -6.17086792 23.56718445 C-5.89770881 22.19475236 -5.62444975 20.82234017 -5.35107422 19.44995117 C-5.11363495 18.24972824 -4.87619568 17.04950531 -4.63156128 15.81291199 C-4 13 -4 13 -3 11 C-14.21442281 14.29708369 -23.83466391 19.63658729 -29.921875 29.921875 C-34.55877352 38.8596649 -34.23691633 48.25928387 -33 58 C-33.33 58.66 -33.66 59.32 -34 60 C-35.65 59.67 -37.3 59.34 -39 59 C-41.86569124 46.68214977 -40.23669781 35.20546039 -33.9375 24.375 C-27.05955173 14.21569724 -17.42450086 8.79857459 -6 5 C-4.68 5 -3.36 5 -2 5 C-1.855625 4.360625 -1.71125 3.72125 -1.5625 3.0625 C-1 1 -1 1 0 0 Z M3 9 C0.96447957 16.90334077 -0.86060675 24.82193034 -2.48046875 32.8203125 C-2.80704216 34.41913773 -2.80704216 34.41913773 -3.14021301 36.05026245 C-3.59434689 38.2767375 -4.04719105 40.50347598 -4.4987793 42.73046875 C-5.19293116 46.15176882 -5.89208412 49.57202086 -6.59179688 52.9921875 C-7.03414812 55.16400265 -7.47621588 57.33587556 -7.91796875 59.5078125 C-8.12729538 60.53166046 -8.33662201 61.55550842 -8.55229187 62.61038208 C-8.74281631 63.55251556 -8.93334076 64.49464905 -9.12963867 65.46533203 C-9.29823898 66.29517609 -9.46683929 67.12502014 -9.64054871 67.98001099 C-10.05839833 69.98622435 -10.05839833 69.98622435 -10 72 C-7.79206152 70.91676258 -5.62682335 69.79261545 -3.4765625 68.59765625 C5.74022976 63.63573932 14.94100825 61.00121163 25.4375 60.9375 C28.60044631 60.67824211 29.68399141 60.3060946 31.9921875 58.0703125 C33.88550295 55.46192512 35.46913095 52.83580832 37 50 C37.49628906 49.0821875 37.99257812 48.164375 38.50390625 47.21875 C42.72943459 39.03254125 44.85058176 31.03971303 42.421875 21.80078125 C39.84019698 16.57875071 35.12782914 13.39347046 30 11 C20.87325811 8.22547047 12.35913176 7.01618404 3 9 Z M-7.9140625 77.73046875 C-11.21638391 81.27537775 -12.75675656 84.01350947 -13 89 C0.40566259 85.64858435 12.99587898 76.30468035 23 67 C23 66.67 23 66.34 23 66 C11.82730701 65.5651347 0.35260433 70.2567271 -7.9140625 77.73046875 Z " fill="#FDFDFD" transform="translate(111,173)"/>
<path d="M0 0 C2.0625 0.4375 2.0625 0.4375 4 1 C3.35521919 7.34405026 2.03753669 13.3329118 0.4375 19.5 C0.08655273 20.87671875 0.08655273 20.87671875 -0.27148438 22.28125 C-0.84333715 24.52197923 -1.41958293 26.76147688 -2 29 C-1.01 28.67 -0.02 28.34 1 28 C3.27794435 27.90003793 5.55874117 27.86168223 7.83886719 27.85473633 C8.87604385 27.84969841 8.87604385 27.84969841 9.93417358 27.84455872 C12.22175898 27.83505496 14.50927108 27.83310564 16.796875 27.83203125 C18.39007599 27.82881734 19.98327668 27.82545317 21.57647705 27.82194519 C24.9188302 27.81595471 28.26115749 27.81410511 31.60351562 27.81469727 C35.87495059 27.81479867 40.14621853 27.80116845 44.41761398 27.78392506 C47.71027377 27.77277337 51.00289364 27.77077906 54.29557037 27.77130699 C55.86954573 27.77013081 57.44352225 27.7657294 59.01747894 27.75797462 C61.22628749 27.7481143 63.4347397 27.75107674 65.64355469 27.75708008 C66.89803406 27.75565506 68.15251343 27.75423004 69.44500732 27.75276184 C73.28965241 28.02014438 76.34858044 28.81719766 80 30 C79.67 31.65 79.34 33.3 79 35 C77.88090996 34.8934182 77.88090996 34.8934182 76.73921204 34.78468323 C67.61718728 33.99125773 58.56339953 33.86943637 49.41796875 33.90234375 C47.86713202 33.90421422 46.31629469 33.90563514 44.76545715 33.90663147 C40.72962749 33.91040716 36.69383517 33.92019372 32.65802002 33.93133545 C28.52136744 33.94165741 24.38470869 33.94615194 20.24804688 33.95117188 C12.16534766 33.96182164 4.0826785 33.97883676 -4 34 C-4.12133301 35.12269287 -4.24266602 36.24538574 -4.36767578 37.40209961 C-4.97076544 42.20412702 -6.01402883 46.85796162 -7.1171875 51.56640625 C-7.55886968 53.48917577 -8.00017656 55.41203153 -8.44116211 57.33496094 C-8.67463348 58.34780151 -8.90810486 59.36064209 -9.14865112 60.4041748 C-13.72249428 80.29225415 -17.96214971 100.23393436 -21.9375 120.25 C-22.16411316 121.38970245 -22.39072632 122.52940491 -22.62420654 123.7036438 C-25.48615817 138.12247459 -28.27039552 152.55556409 -31 167 C-30.34 167 -29.68 167 -29 167 C-29.75 173.75 -29.75 173.75 -32 176 C-34.125 175.625 -34.125 175.625 -36 175 C-36.90195791 170.0309167 -36.93783924 165.99580243 -36.1015625 161.0234375 C-35.99130737 160.35569305 -35.88105225 159.68794861 -35.76745605 158.99996948 C-35.39815833 156.78952111 -35.01226249 154.58236664 -34.625 152.375 C-34.35906141 150.81610645 -34.09327724 149.25718656 -33.82763672 147.69824219 C-30.32119552 127.38453931 -26.14618238 107.190828 -22 87 C-22.45455566 87.53181885 -22.90911133 88.0636377 -23.37744141 88.61157227 C-35.32016911 102.44804383 -35.32016911 102.44804383 -45.0546875 103.3203125 C-47.58512691 102.9036538 -48.41230845 101.96797695 -50 100 C-52.73616936 94.52766129 -51.62274219 84.83492519 -50.328125 78.94140625 C-49.64485471 76.92704808 -48.83790044 74.95510102 -48 73 C-46.68 73 -45.36 73 -44 73 C-42.90191864 76.29424409 -43.11974037 77.182496 -43.9375 80.4375 C-45.23137629 86.31638755 -45.18534434 92.00719981 -45 98 C-37.07873038 94.86138374 -31.45805336 89.45580116 -26 83 C-25.41790771 82.31856934 -24.83581543 81.63713867 -24.23608398 80.93505859 C-18.71651133 73.85575018 -16.94325813 66.5443877 -15.1875 57.875 C-14.90122374 56.54250823 -14.61282155 55.21047137 -14.32226562 53.87890625 C-13.79029539 51.42270958 -13.26779608 48.96442542 -12.75854492 46.50341797 C-11.92411863 42.64953407 -10.95636224 38.82544894 -10 35 C-24.19 35 -38.38 35 -53 35 C-53.33 33.68 -53.66 32.36 -54 31 C-50.41923168 27.41923168 -39.40848706 28.91109995 -34.3671875 28.90234375 C-31.20305614 28.90520748 -28.0390825 28.92056097 -24.875 28.9375 C-23.23437637 28.94252563 -21.59375124 28.94708665 -19.953125 28.95117188 C-15.96871258 28.96209195 -11.9843731 28.97929782 -8 29 C-7.885354 28.38906494 -7.77070801 27.77812988 -7.65258789 27.14868164 C-6.49709723 21.16270153 -5.09186216 15.3038584 -3.4375 9.4375 C-3.21642578 8.63248047 -2.99535156 7.82746094 -2.76757812 6.99804688 C-1.12789996 1.12789996 -1.12789996 1.12789996 0 0 Z " fill="#FDFDFD" transform="translate(233,193)"/>
<path d="M0 0 C1.32 0.33 2.64 0.66 4 1 C3.52434234 3.45906037 3.04463948 5.91720993 2.5625 8.375 C2.42779297 9.07367188 2.29308594 9.77234375 2.15429688 10.4921875 C1.11328125 15.7734375 1.11328125 15.7734375 0 18 C-2.4375 18.75 -2.4375 18.75 -5 19 C-5.66 18.34 -6.32 17.68 -7 17 C-7.33 17.33 -7.66 17.66 -8 18 C-10.33297433 18.04092937 -12.66705225 18.04241723 -15 18 C-14.25 12.25 -14.25 12.25 -12 10 C-12.99 9.67 -13.98 9.34 -15 9 C-15.66 11.97 -16.32 14.94 -17 18 C-18.32 17.67 -19.64 17.34 -21 17 C-20.01 12.71 -19.02 8.42 -18 4 C-10 4 -10 4 -6 5 C-3.78918149 5.10540926 -3.78918149 5.10540926 -1 4 C-0.26676204 1.98491642 -0.26676204 1.98491642 0 0 Z M-7 11 C-6 15 -6 15 -6 15 Z M-3 12 C-2 14 -2 14 -2 14 Z " fill="#FCFCFC" transform="translate(296,319)"/>
<path d="M0 0 C2.875 -0.125 2.875 -0.125 6 0 C6.66 0.66 7.32 1.32 8 2 C8.86625 1.505 8.86625 1.505 9.75 1 C12 0 12 0 16 0 C16 0.99 16 1.98 16 3 C15.34 3 14.68 3 14 3 C13.24572703 7.97906259 13.24572703 7.97906259 13 13 C12.2 17.8 12.2 17.8 11 19 C9.00041636 19.04080783 6.99954746 19.04254356 5 19 C5 17.33333333 5 15.66666667 5 14 C2.69 14 0.38 14 -2 14 C-1.03644647 4.58997722 -1.03644647 4.58997722 0 0 Z M10 4 C11 7 11 7 11 7 Z M6 5 C5.67 7.31 5.34 9.62 5 12 C5.66 11.67 6.32 11.34 7 11 C7 9.02 7 7.04 7 5 C6.67 5 6.34 5 6 5 Z M2 6 C3 8 3 8 3 8 Z M1 11 C2 13 2 13 2 13 Z " fill="#FCFCFC" transform="translate(304,323)"/>
<path d="M0 0 C0.99 0 1.98 0 3 0 C3.66 0.99 4.32 1.98 5 3 C6.32 3 7.64 3 9 3 C9.66 3 10.32 3 11 3 C10.03644647 12.41002278 10.03644647 12.41002278 9 17 C0.2 18.6 0.2 18.6 -3 17 C-2.88556397 14.9160597 -2.75804453 12.83283507 -2.625 10.75 C-2.55539062 9.58984375 -2.48578125 8.4296875 -2.4140625 7.234375 C-2.03751692 4.29305666 -1.5225877 2.50050989 0 0 Z M2 6 C1.34 8.64 0.68 11.28 0 14 C0.66 14 1.32 14 2 14 C2.66 11.36 3.32 8.72 4 6 C3.34 6 2.68 6 2 6 Z M6 9 C7 11 7 11 7 11 Z " fill="#FCFCFC" transform="translate(341,320)"/>
<path d="M0 0 C1.2684375 0.0309375 1.2684375 0.0309375 2.5625 0.0625 C3.2225 0.0625 3.8825 0.0625 4.5625 0.0625 C6.625 0.375 6.625 0.375 8.5625 1.0625 C9.79840089 4.77020267 9.05809869 5.57276972 7.5625 9.0625 C7.19378912 10.72169896 6.84968326 12.3872643 6.5625 14.0625 C4.6875 14.6875 4.6875 14.6875 2.5625 15.0625 C1.9025 14.4025 1.2425 13.7425 0.5625 13.0625 C0.5859375 10.8984375 0.5859375 10.8984375 0.9375 8.4375 C1.04835938 7.62023437 1.15921875 6.80296875 1.2734375 5.9609375 C1.36882812 5.33445312 1.46421875 4.70796875 1.5625 4.0625 C0.9025 4.0625 0.2425 4.0625 -0.4375 4.0625 C-1.0975 7.3625 -1.7575 10.6625 -2.4375 14.0625 C-3.4275 14.0625 -4.4175 14.0625 -5.4375 14.0625 C-5.12999629 11.91594499 -4.8163634 9.77026715 -4.5 7.625 C-4.32597656 6.43003906 -4.15195312 5.23507812 -3.97265625 4.00390625 C-3.25939531 0.08357424 -3.25939531 0.08357424 0 0 Z M4.5625 4.0625 C5.5625 6.0625 5.5625 6.0625 5.5625 6.0625 Z M3.5625 9.0625 C4.5625 11.0625 4.5625 11.0625 4.5625 11.0625 Z " fill="#FCFCFC" transform="translate(356.4375,322.9375)"/>
<path d="M0 0 C0.598125 0.185625 1.19625 0.37125 1.8125 0.5625 C4.16408762 1.22093687 4.16408762 1.22093687 7 0 C6.85795259 1.58367747 6.71119847 3.16693318 6.5625 4.75 C6.48128906 5.63171875 6.40007812 6.5134375 6.31640625 7.421875 C6.03761535 9.69350452 5.61209423 11.79851823 5 14 C3.0085944 14.38133299 1.00720923 14.71325582 -1 15 C-1.33 14.67 -1.66 14.34 -2 14 C-1.9355733 12.39226094 -1.79831686 10.78716777 -1.625 9.1875 C-1.48964844 7.87845703 -1.48964844 7.87845703 -1.3515625 6.54296875 C-1.04111511 4.29739927 -0.60050355 2.18318663 0 0 Z M2 6 C3 8 3 8 3 8 Z " fill="#FDFDFD" transform="translate(331,323)"/>
<path d="M0 0 C2.31 0 4.62 0 7 0 C7 0.99 7 1.98 7 3 C5.68 3 4.36 3 3 3 C3 3.99 3 4.98 3 6 C3.66 6.66 4.32 7.32 5 8 C4.67 8.99 4.34 9.98 4 11 C3.01 11 2.02 11 1 11 C0.67 13.31 0.34 15.62 0 18 C-0.99 18 -1.98 18 -3 18 C-2.41509121 11.85845775 -1.45933748 5.99320151 0 0 Z " fill="#FDFDFD" transform="translate(325,319)"/>
<path d="M0 0 C2.97 0 5.94 0 9 0 C8 3 8 3 6 4 C5.37147066 6.33247815 4.84464754 8.69291467 4.375 11.0625 C4.11460937 12.35285156 3.85421875 13.64320313 3.5859375 14.97265625 C3.39257812 15.97167969 3.19921875 16.97070312 3 18 C1.68 18 0.36 18 -1 18 C-0.01 13.05 0.98 8.1 2 3 C1.34 3 0.68 3 0 3 C0 2.01 0 1.02 0 0 Z " fill="#FCFCFC" transform="translate(270,319)"/>
<path d="M0 0 C0.99 0 1.98 0 3 0 C2.48594831 4.96916636 1.76615118 9.29026351 0 14 C-0.99 14 -1.98 14 -3 14 C-2.69147815 12.041036 -2.3780582 10.08284287 -2.0625 8.125 C-1.88847656 7.03445313 -1.71445312 5.94390625 -1.53515625 4.8203125 C-1 2 -1 2 0 0 Z " fill="#FBFBFB" transform="translate(300,323)"/>
<path d="M0 0 C2.0625 0.1875 2.0625 0.1875 4 1 C4.33 1.99 4.66 2.98 5 4 C3.8125 5.5625 3.8125 5.5625 2 7 C-0.6875 6.6875 -0.6875 6.6875 -3 6 C-2.42655063 3.13275314 -2.1385485 2.1385485 0 0 Z " fill="#FDFDFD" transform="translate(189,251)"/>
<path d="M0 0 C0.99 0 1.98 0 3 0 C3 0.99 3 1.98 3 3 C1.68 3 0.36 3 -1 3 C-0.67 2.01 -0.34 1.02 0 0 Z " fill="#F6F8F7" transform="translate(301,319)"/>
</svg>
